<svg xmlns="http://www.w3.org/2000/svg" viewBox="0 0 500 500"><g id="freepik--Brain--inject-155"><g><g><g><path d="M220.615,435.6314c-1.20952-18.67142-1.90999-37.37498-2.08591-56.08483-.04982-5.29829-.05689-10.59686-.0248-15.89527,.01949-3.21798-4.98049-3.22163-5,0-.11331,18.71021,.28332,37.42267,1.20403,56.11068,.26073,5.29211,.56416,10.58199,.90667,15.86942,.08729,1.34757,1.08653,2.5,2.5,2.5,1.28567,0,2.58774-1.1456,2.5-2.5h0Z" style="fill:#263238;"></path><path d="M220.10309,431.2713s-33.1059-15.6196-42.3237,8.962l43.392-.8609-1.0683-8.1011Z" style="fill:#263238;"></path></g><g><path d="M294.61409,435.6314c-.50986-9.02563-.99004-18.05301-1.45843-27.08087-.87932-16.94804-1.72038-33.89952-2.37178-50.85805-.28062-7.30569-.55868-14.61722-.60729-21.92888-.02138-3.2162-5.02143-3.22337-5,0,.09801,14.74404,.88093,29.4958,1.56645,44.22114,.71473,15.35284,1.50713,30.70213,2.34147,46.04891,.17394,3.19939,.34887,6.39874,.52958,9.59775,.18072,3.19922,5.18191,3.22017,5,0h0Z" style="fill:#263238;"></path><path d="M289.69839,431.2713s33.1059-15.6196,42.32361,8.962l-43.39191-.8609,1.0683-8.1011Z" style="fill:#263238;"></path></g></g><g><path d="M138.5073,185.7774s-25.6518,2.3751-27.5519,30.8771c0,0-28.0269,12.3509-20.4264,45.6032,0,0-10.9258,19.4763,4.2753,34.6774,0,0-5.2251,25.1767,17.8139,38.4777,0,0,12.5882,27.5519,35.8648,12.3508,0,0,11.4008,18.5263,34.6774,12.8259,0,0,17.5762,22.3266,44.1781,12.3509,0,0,31.3522,16.1511,44.6531-7.6006,0,0,20.90141-2.3751,9.5006-22.8015l3.40281-2.8502h13.69839s.9501,14.726,28.027,15.6761c27.0768,.95,36.1025-17.1012,36.1025-17.1012,0,0,28.502,4.2753,31.8272-23.7517,0,0,24.7017-9.5006,16.1511-41.3278,0,0,12.3509-32.7773-17.10119-48.4534,0,0-5.70041-31.8272-33.72731-32.7773,0,0-10.9258-35.1524-57.954-32.7773,0,0-23.27669-20.4264-56.529-13.3009,0,0-36.5775-16.6261-70.7799,8.5506,0,0-31.8272-2.8502-36.1025,31.3522Z" style="fill:#C8B8DB;"></path><g style="opacity:.3;"><path d="M253.38629,312.7625c-9.17629,5.2801-24.7229-.979-24.7861-12.4805-12.3881,4.8133-25.844,1.7038-33.329-9.8803-.2985,10.2822,5.9523,18.8244,15.9158,21.3818,4.66609,1.1976,11.44689,1.5841,15.06889,4.7601,2.382,2.0888,.973,7.5811,2.7922,10.1748,4.8051,6.8509,14.9984,9.2214,22.3334,5.1938,.7796,3.0139,1.5592,6.028,2.3388,9.042-2.8837,7.5204-9.8314,13.3371-17.7418,14.8534-7.9103,1.5163-16.51649-1.3187-21.9768-7.2397-6.1145,3.6726-14.76469,2.3465-19.4983-2.9889-6.5473,4.9559-17.7402,.3452-18.8973-7.7843-9.2228,3.0182-19.9037,1.1115-27.5125-4.9112-7.6089-6.0228-11.917-15.9807-11.0969-25.65-7.0229,1.6352-14.0605-6.8557-11.1505-13.4532-7.5116-1.5281-13.8558-7.7453-15.5355-15.2244-1.6797-7.4793,1.3969-15.8122,7.5337-20.4055-8.344-2.8785-14.938-10.3461-16.7613-18.9823-1.2928-6.1227-.1448-12.6716,2.932-18.1085-7.7448,6.1068-18.5639,18.9827-13.4861,41.198,0,0-10.9258,19.4764,4.2753,34.6775,0,0-5.2251,25.1767,17.8138,38.4776,0,0,12.5883,27.5519,35.8649,12.3509,0,0,11.4008,18.5263,34.6774,12.8259,0,0,17.5762,22.3265,44.1781,12.3509,0,0,31.3521,16.1511,44.6531-7.6005,0,0,20.9015-2.3753,9.5006-22.8017l3.40281-2.8502h1.35739c-5.02939,.2805-8.3161-1.0147-12.1296-2.2305-10.5581-3.3661-18.44979-13.8519-20.7365-24.695Z"></path></g><g><path d="M111.139,215.1951c4.85905,6.2776,12.76822,9.90123,20.67635,9.59466l1.70067-.11497c.56059-.0905,1.12651-.1693,1.69908-.24078-.54475,.17601-1.09613,.34473-1.65283,.50172l-1.70187,.34219-1.73331,.15984c-7.54031,.41233-15.32745-3.564-18.98809-10.24266h0Z" style="fill:#263238;"></path><path d="M137.0621,213.168c-1.70851,9.37692-.57382,19.20518,3.34548,27.89415,.4856,1.09533,1.26356,2.62673,1.81382,3.68-.40009-.55681-.79433-1.12079-1.17882-1.69258-5.56628-8.72135-7.17724-20.01681-3.98048-29.88156h0Z" style="fill:#263238;"></path><path d="M171.3627,218.1386c-8.29031-6.79353-9.32557-20.00933-2.01092-27.93139,2.28815-2.63668,5.2737-4.6915,8.60976-5.78116l-.32271,.44659c.05506-5.06204,.11743-10.40606,2.48992-15.03624,2.26419-4.47908,7.48205-8.21025,12.61127-6.77163-5.08423-1.05346-9.90364,2.6909-11.99369,7.07441-2.12757,4.58541-2.15534,9.75512-2.16021,14.73799l.00011,.3353-.32298,.11157c-13.91462,4.8889-17.5656,22.61141-6.90056,32.81456h0Z" style="fill:#263238;"></path><path d="M285.1886,163.9519c7.84568-3.38862,19.68831-.85757,23.64307,7.25441,1.39666,2.68546,2.16045,5.63132,2.68502,8.57337l-.35037-.26686c7.84121-.85459,16.44648,.47457,22.4915,5.93705,6.01289,5.33153,8.93696,14.16852,6.52573,21.95707l-.2698-.58422c4.68527,1.91975,9.29239,4.21609,13.30441,7.4126,6.16008,4.72201,9.66106,11.99392,11.8667,19.28089,1.73152,7.41493,2.25917,15.01437,3.1435,22.54716l-.15512-.27324c5.16477,3.85901,8.95479,9.8809,8.99061,16.45536,.1133,6.31837-2.19766,13.31064-7.98079,16.53339,8.10199-5.01044,9.4332-17.67384,4.84062-25.4642-1.5717-2.72279-3.83686-4.98741-6.33259-6.88969l-.13474-.10272-.02045-.17087c-1.43946-9.87625-1.33112-20.30104-5.93624-29.37231-3.80806-9.73685-12.98631-15.54398-22.34858-19.24872,2.558-7.47415-.22635-16.24753-6.06787-21.43857-5.85077-5.3042-14.18241-6.69583-21.85215-5.93675l-.30196,.02687c-.48399-3.00851-1.20285-6.01631-2.57407-8.73036-3.79435-8.02831-15.36752-10.67484-23.16644-7.49965h0Z" style="fill:#263238;"></path><path d="M362.52008,338.754c10.59868-7.23454,15.54334-21.59444,10.89011-33.67284-1.42812-4.00758-3.73469-7.68608-6.70661-10.74784,3.2987,2.78819,5.81202,6.46752,7.42596,10.47483,5.16483,12.17994-.06981,27.4871-11.60946,33.94586h0Z" style="fill:#263238;"></path><path d="M371.64688,252.13699c9.35892-7.27826,12.3634-20.96603,6.55501-31.36813-.76296-1.48497-1.71148-2.87268-2.76299-4.19026,1.22076,1.16656,2.26547,2.51607,3.18759,3.94484,6.70022,10.34007,3.52504,25.10908-6.97961,31.61356h0Z" style="fill:#263238;"></path><path d="M295.98459,313.7226c8.56475,1.77726,18.22301,1.45914,25.43385-3.93672,7.21114-4.87686,10.20701-15.75743,4.56637-22.85268l-.67603-.83429,1.0679,.09982c11.11638,.9295,18.72314-10.7334,13.5061-20.65252,5.98181,9.95165-1.98497,22.52971-13.5892,21.55156l.39179-.73431c6.13341,7.58821,2.9293,18.97174-4.75638,24.12267-7.45191,5.42025-17.37528,5.53106-25.94439,3.23646h0Z" style="fill:#263238;"></path><path d="M184.7148,287.1524c1.81881-4.77547,8.09155-7.49634,12.81889-5.54942-4.99568-.37984-9.68024,1.64252-12.81889,5.54942h0Z" style="fill:#263238;"></path><path d="M192.2289,283.36511c4.23987,15.41653,21.83954,23.46595,36.17645,16.50836l.71555-.34188-.06999,.79004c-.45203,5.53372,3.85288,10.54093,8.84,12.42782,5.38433,2.06064,11.41457,1.24396,16.80634-.46599,1.49121,14.90402,14.56273,27.23607,29.57105,27.91823-15.0279-.09742-28.6098-12.31655-30.39031-27.27589l.57677,.36942c-2.71732,.84949-5.53464,1.4465-8.40443,1.59402-2.86148,.14786-5.79359-.17908-8.51369-1.20883-5.38272-2.06565-9.89602-7.44037-9.38719-13.4378l.64552,.44778c-14.68271,7.11247-32.8693-1.4766-36.56607-17.32526h0Z" style="fill:#263238;"></path><path d="M140.42039,276.5755c-3.04118,18.02995,10.26088,35.82136,28.38959,37.86275l.35471,.0442,.04539,.35712c2.20782,17.18526,21.09368,26.99242,36.43041,18.91042l.31324-.1639,.18329,.29373c5.81357,9.2397,18.75744,13.11622,28.77095,8.69411-10.04792,4.86878-23.31753,1.08363-29.40711-8.28839l.49635,.12954c-15.73934,8.60745-35.59401-1.63822-37.70216-19.46267l.40003,.40108c-18.52848-2.1435-31.98086-20.53027-28.2747-38.77798h0Z" style="fill:#263238;"></path><path d="M228.66339,335.76361c5.32629-.31926,8.77073,6.30782,5.37201,10.49159-.96346,1.30925-2.42621,2.25035-3.9767,2.46858,6.38535-2.86621,5.45173-11.52426-1.39531-12.96017h0Z" style="fill:#263238;"></path><path d="M333.64609,269.7225c2.88621-4.24052,8.90892-6.29488,13.7828-4.68854-5.10015-.10432-9.80685,1.49091-13.7828,4.68854h0Z" style="fill:#263238;"></path></g><g style="opacity:.3;"><path d="M368.39969,256.1075c5.8482-9.2852,7.072-21.3332,3.2102-31.6047s-12.71989-18.5291-23.2367-21.6615c1.121-9.0833-1.8471-18.5934-7.9355-25.4267-6.0885-6.8332-15.1946-10.8743-24.3465-10.8044-1.1305-2.556-2.4735-4.9914-3.9689-7.3261-3.20329-.2286-6.5841-.2914-10.2037-.1086,0,0-23.27659-20.4264-56.5289-13.3009,0,0-36.5775-16.6261-70.7799,8.5506,0,0-31.8272-2.8502-36.1025,31.3522,0,0-20.889,1.9419-26.3593,23.2726,5.928-11.6512,20.412-18.8253,33.1998-15.3801,1.9816-8.5535,4.2529-17.6291,10.6322-23.6618,6.3793-6.0326,18.3094-6.9712,23.0567,.4146,6.2342-11.1247,18.0564-18.9252,30.7366-20.2804,12.6803-1.3552,25.8839,3.7706,34.3284,13.3266,11.6356-9.1573,29.6698-8.9453,41.0869,.483,5.4423-2.5207,12.1317-2.1374,17.2506,.9882,5.11881,3.1256,8.5155,8.9011,8.7594,14.8938,7.8637-1.9808,16.6786,.3764,22.504,6.0177,5.8255,5.6414,8.4643,14.376,6.737,22.2992,9.8252,1.7235,17.6099,9.7458,21.7352,18.8279,4.1254,9.0822,5.2016,19.2063,6.2249,29.1288Z" style="fill:#fff;"></path></g><g><g><g><path d="M301.729,229.5482c.85859,10.8759-4.04571,20.5263-10.95551,21.5575-6.9073,1.0321-13.2034-6.946-14.0618-17.8204-.86069-10.8727,4.0432-20.526,10.9517-21.5582,6.9073-1.0322,13.2033,6.9459,14.06561,17.8211Z" style="fill:#263238;"></path><path d="M306.91879,194.2805c-.8065,.0897-1.62479-.145-2.2501-.7218-9.748-9.0255-20.7234-5.8563-20.8506-5.8195-1.6262,.4738-3.27209-.4466-3.6452-2.1067-.3678-1.6577,.66511-3.3994,2.3126-3.8983,.574-.1692,14.3483-4.1609,26.4442,7.0447,1.2044,1.1162,1.2288,3.0941,.0552,4.4148-.5688,.6342-1.31189,1.003-2.0661,1.0868Z" style="fill:#263238;"></path><path d="M197.6287,229.2332c-1.1282,10.8253,3.5346,20.5762,10.4163,21.7812,6.879,1.2062,13.37059-6.59,14.49859-17.414,1.13041-10.8224-3.532-20.5758-10.4123-21.7821-6.8789-1.2062-13.3707,6.5901-14.5026,17.4149Z" style="fill:#263238;"></path><path d="M192.7726,216.56c.8064,.0898,1.6246-.145,2.2501-.7219,9.748-9.0253,20.7232-5.8563,20.8504-5.8195,1.6262,.4739,3.2722-.4466,3.6453-2.1065,.3679-1.6578-.6652-3.3995-2.3127-3.8983-.5739-.1693-14.3481-4.1611-26.4441,7.0446-1.2045,1.1161-1.2287,3.094-.0552,4.4147,.5687,.6344,1.312,1.003,2.0662,1.0869Z" style="fill:#263238;"></path></g><path d="M218.74469,223.8355c0,3.688-1.1646,6.6777-2.6013,6.6777-1.4368,0-2.60139-2.9897-2.60139-6.6777s1.16459-6.6779,2.60139-6.6779c1.4367,0,2.6013,2.9898,2.6013,6.6779Z" style="fill:#fff;"></path><path d="M296.70659,222.5002c0,3.688-1.1648,6.6777-2.6014,6.6777-1.4367,0-2.6015-2.9897-2.6015-6.6777s1.1648-6.6777,2.6015-6.6777c1.4366,0,2.6014,2.9897,2.6014,6.6777Z" style="fill:#fff;"></path></g><ellipse cx="196.6468" cy="266.1584" rx="11.932" ry="7.4926" style="fill:#eec1bb;"></ellipse><ellipse cx="302.29872" cy="261.83687" rx="11.93192" ry="7.49263" style="fill:#eec1bb;"></ellipse></g><path d="M261.39039,270.3133c-.2972-4.1147-.3477-8.2545-.89139-12.3439-.17951-1.3494-.35021-2.1353-.66051-3.3141-.44849-1.7039-4.2333-2.0646-4.2333-2.0646-3.3176-.4557-7.364,.111-8.9945,3.2679-1.6305,3.1568-1.9299,6.9133-1.8449,10.5279,.0843,3.5839,.7737,7.6364,3.5667,9.5687,2.31,1.598,5.29751,1.2046,8.008,.7532,1.6958-.2824,3.5974-.7032,4.5228-2.2655,.7061-1.1922,.6291-2.7181,.5271-4.1296Z" style="fill:#263238;"></path><path d="M245.25729,270.7209c.4836,2.1351,1.3939,4.0712,3.0752,5.2343,2.3101,1.598,5.29751,1.2046,8.008,.7532,1.5847-.2639,3.3388-.6613,4.3182-1.9856-3.5562-6.6196-13.1155-4.6432-15.4014-4.0019Z" style="fill:#dc5753;"></path></g><g><path d="M233.01989,308.5175s-11.5583-9.7511-9.2124-13.4805c1.2499-1.987,2.9478-2.2986,7.9306,.1441s6.5726,2.9014,8.6528,.8206c2.0803-2.0807,7.71211-22.3795,9.5358-23.6014,1.8236-1.2219,4.2038,1.0452,4.39631,5.0568,.19239,4.0116,.80119,9.5488,.80119,9.5488,0,0,9.7522,5.2056,10.1371,11.8418,.3848,6.6362,.8013,10.9359-9.1308,18.9709-9.9322,8.035-23.1106-9.3011-23.1106-9.3011Z" style="fill:#263238;"></path><path d="M147.2759,277.4508c-3.67767,11.09968-7.83392,21.98513-9.21747,33.67258-.71462,6.03673-.97828,12.29936-.22749,18.34547,.72227,5.81645,2.53535,11.52195,6.58157,15.90863,8.2534,8.94785,21.90265,8.42066,32.86699,6.34422,11.88553-2.25089,23.54229-6.46184,34.27551-12.01464,11.92398-6.16883,22.71119-14.30427,32.52785-23.42441,2.36249-2.19487-1.17941-5.72448-3.53553-3.53553-8.2811,7.69353-17.23708,14.62556-27.0717,20.22807-10.05435,5.72769-20.86714,9.93576-32.0909,12.72731-9.61501,2.39142-21.82265,4.51739-30.61663-1.40741-9.31359-6.27488-8.81274-19.89262-8.0447-29.74624,.97072-12.45393,5.48076-24.01889,9.37389-35.76885,1.01436-3.06146-3.81255-4.37402-4.8214-1.3292h0Z" style="fill:#263238;"></path><path d="M156.8314,275.885c.2952,3.9043-2.6305,7.3088-6.5349,7.604s-7.3088-2.6306-7.604-6.5349c-.2952-3.9044,2.6305-7.3088,6.5349-7.6041,3.9044-.2952,7.3088,2.6306,7.604,6.535Z" style="fill:#263238;"></path></g><g><path d="M342.63769,379.5296c2.0311-2.1288,1.6777,7.9113-.8819,2.9876-2.5597-4.9238-2.2883-6.6286-.3313-7.925,3.673-2.4333,13.5516-2.7271,13.5516-2.7271,0,0,17.6423,12.7656,9.84391,22.8846-7.79831,10.1191-12.10661,9.8042-18.75011,9.5761-6.6434-.2281-12.0777-9.8548-12.0777-9.8548,0,0-.7069-7.6455,1.75681-10.2869,2.46369-2.6415,6.88869-4.6545,6.88869-4.6545Z" style="fill:#263238;"></path><path d="M352.23399,286.85878c11.51919,7.96896,19.86146,20.22966,23.42269,33.74226,3.63807,13.80415,1.82341,28.6152-4.68365,41.29423-3.72847,7.26494-8.85738,13.67665-15.16361,18.86726-1.04321,.85866-.88972,2.64581,0,3.53553,1.03191,1.03191,2.48974,.86079,3.53553,0,11.88736-9.78439,19.9816-24.15408,22.37584-39.35106,2.40104-15.2401-.95228-30.90541-9.2225-43.9279-4.62599-7.28419-10.64529-13.56907-17.74072-18.47768-1.11091-.76853-2.77566-.20556-3.42047,.89688-.72643,1.24198-.21661,2.65016,.89688,3.42047h0Z" style="fill:#263238;"></path><path d="M360.58539,284.2303c0,3.9155-3.1741,7.0896-7.0896,7.0896s-7.0897-3.1741-7.0897-7.0896,3.1742-7.0897,7.0897-7.0897,7.0896,3.1742,7.0896,7.0897Z" style="fill:#263238;"></path></g></g></g><g id="freepik--Speech_Bubble--inject-155"><g><g><path d="M408.24109,89.7902c-18.3374-13.5311-44.172-9.6349-57.7029,8.7025-10.44619,14.1566-10.465,32.7606-1.5115,46.7433l-3.3338,11.9366,13.0186-1.4107c.1826,.1395,.3438,.2967,.5296,.4337,18.3372,13.5311,44.1716,9.6345,57.7025-8.7027,13.5311-18.3376,9.6349-44.172-8.7025-57.7027Z" style="fill:#C8B8DB;"></path><path d="M408.24109,89.7902c-18.3374-13.5311-44.172-9.6349-57.7029,8.7025-10.44619,14.1566-10.465,32.7606-1.5115,46.7433l-3.3338,11.9366,13.0186-1.4107c.1826,.1395,.3438,.2967,.5296,.4337,18.3372,13.5311,44.1716,9.6345,57.7025-8.7027,13.5311-18.3376,9.6349-44.172-8.7025-57.7027Z" style="fill:#fff; opacity:.7;"></path><path d="M430.20801,121.74072h-.00781c-.1377-.00439-.24609-.11914-.24219-.25732,.39258-13.27539-6.44629-26.68213-17.42383-34.15576-.11426-.07764-.14355-.23291-.06641-.34717,.07812-.11426,.23438-.14404,.34766-.06592,11.11523,7.56738,18.04004,21.14209,17.64258,34.5835-.00391,.13574-.11523,.24268-.25,.24268Z" style="fill:#C8B8DB;"></path><path d="M428.82812,133.8999c-.03027,0-.06055-.00537-.08984-.0166-.12891-.0498-.19336-.19434-.14355-.32324,.7207-1.87061,1.05371-3.91553,.96387-5.91455-.00586-.13818,.10059-.25488,.23926-.26074l.01074-.00049c.13281,0,.24414,.10449,.25,.23877,.09277,2.06738-.25195,4.18262-.99707,6.1167-.03809,.09912-.13281,.16016-.2334,.16016Z" style="fill:#C8B8DB;"></path></g><path d="M381.06309,125.0187c.6945-1.1802,1.7076-2.4823,3.0377-3.9068,.9758-1.0423,1.6918-1.9193,2.1496-2.6308,.4594-.7112,.6883-1.5186,.6883-2.4234,0-1.2837-.4361-2.2997-1.3084-3.0467-.87229-.747-2.0322-1.1198-3.4799-1.1198-1.39039,0-2.6245,.3387-3.7025,1.0162-1.0795,.6757-1.9874,1.6239-2.7265,2.8379l-5.3653-3.6978c1.242-2.2226,2.9185-3.9424,5.0326-5.1579,2.1127-1.2157,4.6181-1.8234,7.515-1.8234,3.3994,0,6.1259,.8521,8.1798,2.5532,2.0539,1.7014,3.0809,4.063,3.0809,7.0851,0,1.4243-.1996,2.674-.5986,3.7504-.399,1.0765-.8862,1.9889-1.463,2.7343-.5754,.747-1.3224,1.6069-2.2379,2.5799-1.0935,1.1458-1.8916,2.1095-2.3942,2.8904-.50269,.7811-.75469,1.7276-.75469,2.8396h-6.69371c0-1.8064,.3465-3.2988,1.0408-4.4804Zm-.70809,15.7898c-.81361-.8236-1.22031-1.826-1.22031-3.0083,0-1.1807,.3989-2.1679,1.1969-2.961,.7981-.7919,1.8188-1.1893,3.0592-1.1893,1.2419,0,2.2611,.3974,3.0591,1.1893,.79811,.7931,1.19711,1.7803,1.19711,2.961,0,1.1823-.40521,2.1847-1.21861,3.0083-.8136,.8238-1.825,1.2348-3.0376,1.2348-1.211,0-2.2239-.411-3.03579-1.2348Z" style="fill:#C8B8DB;"></path></g></g></svg>
